<?xml version="1.0" encoding="UTF-8"?>
<svg id="_레이어_1" data-name="레이어 1" xmlns="http://www.w3.org/2000/svg" version="1.1" viewBox="0 0 836.26 839.22">
  <defs>
    <style>
      .cls-1 {
        fill: #fff;
        stroke-width: 0px;
      }
    </style>
  </defs>
  <path class="cls-1" d="M111.55,669.09l-5.03,4.15-3.78-4.58,5.03-4.15,3.78,4.58Z"/>
  <path class="cls-1" d="M77.22,603.2l3.91-2.36,12.94,21.48-33.99,20.48-2.61-4.33,30.08-18.12-10.33-17.14Z"/>
  <path class="cls-1" d="M43.83,602.58l-4.95,2.43-2.13-4.34,4.95-2.43,2.13,4.34ZM74.5,587.54l-25.42,12.47-2.13-4.34,25.42-12.47,2.13,4.34Z"/>
  <path class="cls-1" d="M64.63,566.08l-36.66,15.2-1.85-4.47,36.66-15.2,1.85,4.47Z"/>
  <path class="cls-1" d="M31.51,531.37l1.45,4.5c-3.61,1.16-4.86,3.99-3.67,7.71,1.03,3.19,3.15,4.7,5.49,3.95,2.81-.91,2.67-3,2.29-7.79-.35-5.26-.9-10.8,5.36-12.81,4.83-1.55,9.38,1.49,11.45,7.92,2.24,6.96.18,12.19-6.12,14.27l-1.5-4.66c3.87-1.25,5.22-4.34,3.89-8.47-1.11-3.45-3.45-5.24-5.88-4.46-3.13,1.01-3.01,3.39-2.63,8.93.32,4.81.88,9.65-5,11.54-4.62,1.48-9.1-1.52-10.97-7.33-2.09-6.49-.1-11.4,5.84-13.31Z"/>
  <path class="cls-1" d="M18.1,495.83l-.02-.11-3.98.83-.96-4.63,37.81-7.87.99,4.74-14.02,2.92.02.11c3.1.93,5.56,3.73,6.32,7.39,1.45,6.94-3.35,12.61-12.19,14.45-8.84,1.84-15.44-1.45-16.9-8.44-.77-3.71.37-7.27,2.94-9.38ZM31.03,508.69c6.49-1.35,10.07-5.24,9.09-9.92-.94-4.52-5.65-6.63-12.25-5.25-6.55,1.36-10.02,5.17-9.08,9.7.97,4.68,5.75,6.83,12.24,5.48Z"/>
  <path class="cls-1" d="M27.17,469.33l-17.21,1.6-.45-4.82,16.82-1.56c5.88-.55,7.77-3.15,7.4-7.15-.36-3.89-3.67-6.95-9.33-6.42l-16.15,1.5-.45-4.82,28.19-2.62.43,4.65-3.72.34v.11c2.78,1.46,4.78,4.36,5.13,8.08.59,6.35-2.95,10.38-10.67,11.1Z"/>
  <path class="cls-1" d="M17.59,405.44l10.86.18c3.12.05,5.52-.19,7.25-.54l-.07,4.4c-1.29.25-2.85.34-4.13.32v.11c2.97,1.97,4.65,5.24,4.58,9.75-.09,5.83-3.66,9.4-8.46,9.32-4.68-.08-7.59-2.71-8.74-10.75-.35-2.48-.69-5.89-.82-8.1l-1.11-.02c-4.68-.08-6.67,2.48-6.73,6.21-.07,4.07,2.18,6.25,5.52,6.47l-.08,4.84c-5.34-.36-9.35-4.28-9.23-11.37.11-6.82,3.69-10.94,11.16-10.82ZM21.8,410.18c.13,2.15.42,5.17.77,7.33.65,4.79,2.01,6.47,4.8,6.51,2.9.05,4.88-2.01,4.94-5.64.04-2.25-.71-4.41-2.13-5.81-1.76-1.73-3.31-2.31-6.65-2.36l-1.73-.03Z"/>
  <path class="cls-1" d="M10.5,369.59l4.38.48c-.12.6-.31,1.29-.38,1.89-.57,5.25,2.54,8.58,8.74,9.25l14.35,1.57-.53,4.81-28.14-3.08.5-4.59,4.32.47v-.11c-2.89-2.2-4.08-5.15-3.69-8.7.07-.6.21-1.42.44-2Z"/>
  <path class="cls-1" d="M36.12,339.2l.98-4.85c4.68,1.9,8.04,6.9,6.62,13.91-1.63,8.08-8.56,11.67-17.63,9.83-8.19-1.66-13.3-7.63-11.68-15.6,1.25-6.2,5.85-9.81,12.09-10,1.66-.06,3.66.18,6.06.67l-4.14,20.47c6.87,1.17,10.68-1.65,11.59-6.12.81-3.99-.91-7.03-3.89-8.3ZM24.78,352.83l3.18-15.73c-5.51-.61-8.98,1.94-9.83,6.14-.88,4.36,1.45,8.03,6.65,9.59Z"/>
  <path class="cls-1" d="M24.65,286.43l-5.19-1.86,1.63-4.55,5.19,1.86-1.63,4.55ZM56.8,297.97l-26.65-9.57,1.63-4.55,26.65,9.57-1.63,4.55Z"/>
  <path class="cls-1" d="M55.58,250.06l-1.95,4.31c-3.45-1.56-6.28-.3-7.89,3.25-1.38,3.06-.82,5.6,1.41,6.61,2.69,1.22,3.99-.43,6.93-4.23,3.27-4.13,6.58-8.61,12.58-5.9,4.62,2.09,5.95,7.4,3.17,13.56-3.01,6.66-8.05,9.15-14.12,6.47l2.02-4.46c3.71,1.68,6.78.29,8.57-3.67,1.5-3.31.97-6.2-1.37-7.25-3-1.35-4.51.5-7.95,4.86-2.99,3.78-5.83,7.74-11.46,5.2-4.42-2-5.72-7.23-3.21-12.79,2.81-6.21,7.58-8.52,13.27-5.95Z"/>
  <path class="cls-1" d="M89.19,195.43l9.06,6c2.6,1.72,4.75,2.82,6.41,3.45l-2.43,3.67c-1.22-.48-2.58-1.25-3.65-1.96l-.06.09c1.45,3.27,1.1,6.92-1.39,10.69-3.22,4.86-8.15,5.95-12.14,3.3-3.91-2.58-4.94-6.37-1.58-13.77,1.04-2.28,2.6-5.34,3.67-7.26l-.93-.62c-3.9-2.58-6.96-1.5-9.02,1.61-2.25,3.39-1.52,6.44,1.18,8.42l-2.67,4.04c-4.31-3.18-5.58-8.64-1.67-14.55,3.76-5.68,9-7.23,15.23-3.11ZM90.19,201.7c-1.04,1.88-2.43,4.59-3.29,6.59-2.04,4.39-1.78,6.54.54,8.07,2.42,1.6,5.2.93,7.2-2.09,1.25-1.88,1.78-4.1,1.33-6.05-.55-2.41-1.54-3.73-4.33-5.57l-1.44-.95Z"/>
  <path class="cls-1" d="M109.8,136.27c6.48-6.89,12.34-7.26,17.25-2.64,3.69,3.48,4.42,8.24,2.1,12.24l.08.08c2.61-1.47,4.69-1.25,9.47.84l11.07,4.91-3.77,4-10.08-4.58c-4.54-2.09-6.88-1.8-9.75,1.25l-4.71,5,12.17,11.46-3.47,3.68-28.89-27.19,8.52-9.05ZM118.31,154.39l5.01-5.32c4.18-4.44,3.6-8.46.48-11.4-3.37-3.17-7.13-2.26-11.05,1.9l-4.79,5.08,10.35,9.74Z"/>
  <path class="cls-1" d="M169.34,123.21l3.77-3.21c2.5,4.38,2.06,10.4-3.38,15.03-6.28,5.35-13.94,3.89-19.94-3.15-5.42-6.37-5.75-14.21.45-19.49,4.81-4.1,10.66-4.1,15.69-.4,1.34.98,2.77,2.4,4.36,4.27l-15.9,13.54c4.68,5.16,9.42,5.3,12.9,2.34,3.1-2.64,3.62-6.09,2.07-8.94ZM152,126.92l12.22-10.41c-3.96-3.88-8.26-4.02-11.53-1.24-3.39,2.89-3.82,7.21-.7,11.65Z"/>
  <path class="cls-1" d="M197.4,89.03l-3.89,2.68c-2.15-3.12-5.22-3.51-8.44-1.29-2.76,1.9-3.6,4.37-2.21,6.39,1.68,2.43,3.64,1.69,8.12-.04,4.94-1.85,10.08-3.97,13.82,1.44,2.88,4.17,1.28,9.41-4.29,13.25-6.02,4.15-11.62,3.68-15.43-1.75l4.03-2.78c2.31,3.35,5.66,3.75,9.23,1.28,2.99-2.06,4.03-4.81,2.58-6.92-1.87-2.71-4.12-1.9-9.31.06-4.51,1.69-8.99,3.62-12.5-1.47-2.75-3.99-1.17-9.15,3.86-12.61,5.61-3.87,10.89-3.38,14.44,1.76Z"/>
  <path class="cls-1" d="M206.29,66.39l-2.76-4.77,4.19-2.42,2.76,4.78-4.19,2.42ZM223.4,95.95l-14.18-24.5,4.19-2.42,14.18,24.5-4.19,2.42Z"/>
  <path class="cls-1" d="M260.51,76.67l-1.78-3.72-.1.05c-.11,3.33-2.24,6.39-5.67,8.03-6.45,3.09-13.09-.22-16.99-8.36-3.9-8.14-2.29-15.34,4.11-18.41,3.37-1.62,7.07-1.41,9.68.49l.1-.05-6.6-13.77,4.36-2.09,17.14,35.79-4.27,2.04ZM240.54,70.48c2.87,5.98,7.5,8.52,11.81,6.45,4.17-2,5.09-7.07,2.17-13.15-2.89-6.03-7.42-8.49-11.59-6.5-4.31,2.07-5.26,7.22-2.39,13.2Z"/>
  <path class="cls-1" d="M296.49,53.65l4.67-1.63c.75,4.99-1.82,10.44-8.57,12.8-7.78,2.72-14.41-1.4-17.46-10.13-2.76-7.89-.23-15.33,7.45-18.01,5.97-2.09,11.42.02,14.78,5.29.9,1.4,1.71,3.24,2.52,5.55l-19.72,6.9c2.51,6.5,6.88,8.34,11.18,6.83,3.84-1.34,5.58-4.37,5.15-7.59ZM278.97,50.86l15.16-5.3c-2.29-5.05-6.25-6.73-10.3-5.31-4.2,1.47-6.17,5.34-4.85,10.61Z"/>
  <path class="cls-1" d="M338.75,33.26l3.94,16.82-4.71,1.1-3.85-16.44c-1.35-5.75-4.19-7.26-8.09-6.34-3.86.9-6.38,4.59-5.08,10.12l3.7,15.79-4.71,1.11-6.46-27.56,4.55-1.07.85,3.63.11-.02c1.06-2.94,3.61-5.31,7.25-6.17,6.21-1.46,10.74,1.49,12.51,9.03Z"/>
  <path class="cls-1" d="M371.3,41.39l.56,3.97c-.79.34-2.02.62-3,.76-5.28.75-7.83-1.2-8.65-6.99l-2.31-16.33-4.79.68-.55-3.86,4.79-.68-.96-6.79,4.79-.68.96,6.79,5.5-.78.55,3.86-5.5.78,2.24,15.84c.45,3.2,1.68,4.38,4.45,3.98.71-.1,1.45-.32,1.92-.55Z"/>
  <path class="cls-1" d="M385.29,9.87l-.4-5.5,4.83-.36.4,5.5-4.82.35ZM387.79,43.94l-2.07-28.23,4.83-.36,2.07,28.24-4.82.35Z"/>
  <path class="cls-1" d="M432.3,24.74l-.1,10.87c-.03,3.12.22,5.52.59,7.25l-4.4-.04c-.26-1.28-.36-2.85-.35-4.13h-.11c-1.95,2.99-5.21,4.69-9.72,4.65-5.83-.05-9.42-3.6-9.38-8.39.04-4.68,2.66-7.61,10.69-8.82,2.48-.37,5.89-.73,8.09-.87v-1.11c.05-4.68-2.51-6.66-6.25-6.69-4.07-.04-6.23,2.23-6.43,5.57l-4.84-.04c.33-5.35,4.21-9.38,11.3-9.31,6.82.06,10.96,3.61,10.89,11.08ZM427.58,28.99c-2.14.15-5.17.46-7.32.82-4.79.68-6.45,2.06-6.48,4.84-.03,2.9,2.04,4.87,5.67,4.9,2.25.02,4.41-.74,5.79-2.18,1.72-1.77,2.29-3.32,2.32-6.67l.02-1.73Z"/>
  <path class="cls-1" d="M450.38,44.12l3.63-39.51,4.82.44-3.63,39.51-4.82-.44Z"/>
  <path class="cls-1" d="M527.56,30.09l-4.97-1.21c1.39-5.68-1.05-9.15-6.66-10.52-4.7-1.15-8.1.49-9,4.17-1.01,4.11,1.64,6.02,7.51,9.12,6.77,3.55,12.04,6.79,10.11,14.69-1.69,6.93-8.12,10.06-16.39,8.04-8.87-2.17-13.07-8.13-10.9-17.01l5.07,1.24c-1.55,6.33,1.21,10.11,6.93,11.5,5.45,1.33,9.11-.47,10.16-4.75s-1.84-6.13-7.6-9.2c-6.87-3.63-11.87-6.8-9.98-14.54,1.52-6.22,7.45-9.42,15.19-7.53,9.08,2.22,12.56,7.66,10.53,16Z"/>
  <path class="cls-1" d="M566.42,57.25c-3.1,8.48-9.4,12.4-16.06,9.96-3.51-1.29-5.92-4.13-6.39-7.33l-.1-.04-4.92,13.45-4.54-1.66,13.27-36.27,4.49,1.65-1.4,3.82.1.04c2.41-2.26,6.14-2.86,9.65-1.57,6.71,2.46,9.01,9.47,5.9,17.95ZM547.16,50.19c-2.32,6.33-.97,11.28,3.37,12.87,4.49,1.65,8.86-1.33,11.14-7.55,2.28-6.23.84-11.26-3.65-12.91-4.34-1.59-8.56,1.32-10.86,7.6Z"/>
  <path class="cls-1" d="M603.31,70.18l-4.8,9.75c-1.38,2.8-2.19,5.07-2.61,6.79l-3.95-1.94c.32-1.27.91-2.72,1.47-3.87l-.1-.05c-3.06,1.85-6.73,1.97-10.78-.02-5.23-2.57-6.93-7.33-4.82-11.63,2.07-4.2,5.69-5.71,13.46-3.32,2.39.74,5.62,1.9,7.67,2.72l.49-1c2.07-4.2.61-7.09-2.75-8.74-3.65-1.8-6.58-.69-8.21,2.23l-4.34-2.14c2.61-4.68,7.86-6.63,14.22-3.5,6.12,3.01,8.32,8.01,5.02,14.71ZM597.22,71.97c-2-.8-4.86-1.83-6.96-2.43-4.61-1.46-6.71-.94-7.94,1.56-1.28,2.6-.27,5.27,2.99,6.88,2.02,1,4.29,1.24,6.16.55,2.32-.85,3.5-2.01,4.97-5.01l.76-1.55Z"/>
  <path class="cls-1" d="M640.33,92.03l-4.28-2.69c1.86-3.57,1.01-7.4-2.25-9.44-4.19-2.63-8.97-.7-12.56,5.01-3.62,5.76-3.25,10.86.94,13.49,3.26,2.05,7.25.87,9.69-2.4l4.28,2.69c-3.91,5.18-10.29,6.76-16.06,3.14-6.84-4.3-8.07-11.85-3.17-19.64,4.89-7.79,12.23-9.96,19.08-5.66,5.68,3.57,7.26,9.83,4.35,15.5Z"/>
  <path class="cls-1" d="M663.75,121.9l3.88,3.07c-3.81,3.31-9.79,4.06-15.4-.37-6.47-5.11-6.55-12.91-.81-20.17,5.18-6.56,12.81-8.42,19.2-3.38,4.96,3.92,6.11,9.65,3.47,15.31-.7,1.51-1.81,3.18-3.33,5.11l-16.4-12.95c-4.15,5.6-3.35,10.28.23,13.1,3.19,2.52,6.68,2.36,9.17.28ZM656.71,105.62l12.6,9.95c3.03-4.64,2.32-8.89-1.04-11.54-3.5-2.76-7.82-2.34-11.56,1.6Z"/>
  <path class="cls-1" d="M730.29,143.02c5.99,6.74,5.56,13.38.15,18.19-5.41,4.82-12.06,4.47-18.05-2.26l-5.55-6.24-11.74,10.45-3.36-3.78,29.64-26.37,8.92,10.02ZM710.16,149.74l5.3,5.96c3.95,4.44,8.01,4.72,11.5,1.61,3.5-3.11,3.68-7.18-.26-11.61l-5.3-5.96-11.24,10Z"/>
  <path class="cls-1" d="M719.22,192.24l31.92-23.57,2.88,3.89-31.92,23.57-2.87-3.89Z"/>
  <path class="cls-1" d="M759.16,219.72l-9.26,5.69c-2.66,1.63-4.56,3.12-5.83,4.36l-2.3-3.75c.95-.91,2.22-1.82,3.31-2.49l-.06-.09c-3.57-.06-6.74-1.92-9.1-5.76-3.05-4.97-1.96-9.9,2.12-12.41,3.99-2.45,7.86-1.8,13.15,4.37,1.63,1.9,3.75,4.6,5.04,6.39l.95-.58c3.99-2.45,4.3-5.67,2.34-8.86-2.13-3.47-5.2-4.1-8.13-2.49l-2.53-4.12c4.7-2.57,10.18-1.42,13.9,4.62,3.57,5.81,2.77,11.21-3.6,15.12ZM753.06,217.98c-1.27-1.74-3.13-4.14-4.59-5.76-3.12-3.7-5.17-4.37-7.55-2.91-2.47,1.52-3.04,4.32-1.14,7.41,1.18,1.92,2.97,3.34,4.92,3.75,2.41.52,4.03.17,6.88-1.58l1.47-.91Z"/>
  <path class="cls-1" d="M778.05,258.74l-15.58,7.47-2.09-4.36,15.23-7.3c5.33-2.55,6.19-5.65,4.45-9.27-1.71-3.57-5.85-5.24-10.98-2.78l-14.62,7.01-2.09-4.36,25.53-12.25,2.02,4.21-3.37,1.62.05.1c3.1.4,5.96,2.38,7.58,5.75,2.76,5.75.86,10.81-6.13,14.16Z"/>
  <path class="cls-1" d="M793.2,299.37l-16.33,5.64-1.58-4.57,15.96-5.51c5.58-1.93,6.8-4.91,5.49-8.7-1.29-3.74-5.21-5.88-10.59-4.02l-15.33,5.29-1.58-4.57,26.76-9.24,1.53,4.42-3.53,1.22.04.1c3.03.76,5.65,3.05,6.87,6.59,2.08,6.03-.39,10.83-7.71,13.37Z"/>
  <path class="cls-1" d="M781.67,322.65l27.47-6.85,1.17,4.7-27.47,6.85-1.17-4.69ZM814.82,314.39l5.35-1.33,1.17,4.7-5.35,1.33-1.17-4.7Z"/>
  <path class="cls-1" d="M807.63,365.87l-17.06,2.68-.75-4.78,16.68-2.62c5.83-.92,7.55-3.64,6.93-7.6-.61-3.91-4.1-6.7-9.71-5.82l-16.02,2.52-.75-4.78,27.96-4.4.73,4.62-3.69.58.02.11c2.85,1.28,5.03,3.99,5.61,7.69.99,6.3-2.28,10.6-9.94,11.8Z"/>
  <path class="cls-1" d="M817.31,403.6v.11s4.12-.18,4.12-.18l.21,4.67-26.56,1.16c-8.3.36-12.67-3.85-13.01-11.65-.31-7.14,2.9-11.52,8.46-11.93l.21,4.84c-3.28.31-5.06,2.92-4.88,6.98.22,4.94,2.94,7.3,9.23,7.03l3.06-.13v-.11c-3.21-1.84-4.95-4.57-5.1-8.09-.32-7.2,5.16-12.06,13.85-12.44,8.74-.38,14.57,3.99,14.88,11.18.16,3.57-1.33,6.5-4.48,8.56ZM807.12,388.91c-6.18.27-10.12,3.41-9.92,7.97.21,4.83,4.3,7.63,10.59,7.35,6.35-.28,10.17-3.42,9.96-8.25-.2-4.56-4.4-7.35-10.63-7.07Z"/>
  <path class="cls-1" d="M814.85,485.47l.75-5.33c5.14-.16,8.58-3.34,9.37-8.95,1.08-7.62-4.28-13.15-14.16-14.55-9.93-1.4-16.53,2.27-17.58,9.68-.89,6.31,2.1,11.46,11.31,12.81l1.51-10.67,4.36.62-2.18,15.46-20.86-2.95.63-4.46,5.41.76.02-.11c-3.46-2.6-5.18-7.56-4.4-13.06,1.4-9.91,9.96-15.08,22.54-13.31,12.75,1.8,19.59,9.6,18.05,20.43-1.25,8.87-6.99,14-14.76,13.63Z"/>
  <path class="cls-1" d="M807.11,521.28l-4.27-1.08c.2-.57.48-1.24.63-1.83,1.29-5.12-1.34-8.84-7.39-10.36l-14-3.52,1.18-4.69,27.46,6.91-1.12,4.48-4.22-1.06-.03.11c2.57,2.57,3.35,5.66,2.47,9.13-.15.59-.4,1.37-.71,1.92Z"/>
  <path class="cls-1" d="M780.96,555.42c-8.73-3.06-12.41-9.77-9.69-17.5s9.75-10.62,18.48-7.56c8.73,3.06,12.42,9.71,9.71,17.44s-9.77,10.67-18.5,7.61ZM788.07,535.13c-6.36-2.23-11.34-.66-13.02,4.11-1.69,4.82,1.22,9.17,7.58,11.4,6.36,2.23,11.35.66,13.04-4.17,1.67-4.77-1.23-9.11-7.6-11.35Z"/>
  <path class="cls-1" d="M771.35,570.32l15.59,7.45-2.09,4.37-15.24-7.28c-5.33-2.55-8.28-1.28-10.01,2.34-1.68,3.52-.41,7.84,4.72,10.29l14.63,6.99-2.08,4.36-25.55-12.2,2.01-4.22,3.37,1.61.05-.1c-1.63-2.67-1.86-6.19-.25-9.56,2.75-5.75,7.86-7.4,14.85-4.06Z"/>
  <path class="cls-1" d="M741.37,631.61c-7.67-4.75-10.25-11.71-6.51-17.74,1.97-3.18,5.24-4.97,8.46-4.78l.06-.09-12.18-7.54,2.55-4.11,32.83,20.33-2.52,4.07-3.46-2.14-.06.09c1.73,2.82,1.56,6.59-.41,9.77-3.76,6.08-11.09,6.9-18.77,2.15ZM752.16,614.17c-5.73-3.55-10.85-3.23-13.28.7-2.52,4.07-.49,8.94,5.15,12.43,5.64,3.49,10.86,3.1,13.38-.96,2.43-3.93.44-8.65-5.24-12.17Z"/>
  <path class="cls-1" d="M716.65,663.67l4.99,4.2-3.82,4.55-4.99-4.2,3.82-4.55Z"/>
  <path class="cls-1" d="M658.18,709.5l-3.04-3.41,18.71-16.69,26.41,29.62-3.77,3.37-23.37-26.21-14.94,13.32Z"/>
  <path class="cls-1" d="M643.32,715.08l16.99,22.64-3.87,2.9-17-22.64,3.87-2.9ZM663.82,742.41l3.31,4.41-3.87,2.91-3.31-4.41,3.87-2.9Z"/>
  <path class="cls-1" d="M636.06,758.33l-1.61-2.47-4.65,3.03-2.13-3.27,4.65-3.03-13.33-20.45,4.01-2.61,13.33,20.45,4.1-2.67,2.13,3.27-4.1,2.67,1.92,2.94c2.98,4.58,2.19,8.29-1.96,10.99-.83.54-1.86,1.08-2.5,1.3l-2.07-3.18c.34-.09.92-.4,1.43-.73,2.26-1.47,2.71-3.3.79-6.24Z"/>
  <path class="cls-1" d="M589.82,758.81l-4.36,2.34c-1.52-4.81.17-10.59,6.47-13.98,7.26-3.9,14.45-.87,18.83,7.28,3.96,7.36,2.62,15.1-4.54,18.95-5.57,2.99-11.29,1.76-15.42-2.91-1.1-1.24-2.2-2.93-3.36-5.09l18.4-9.89c-3.49-6.03-8.09-7.16-12.11-5-3.58,1.93-4.83,5.19-3.9,8.3ZM607.55,758.83l-14.14,7.6c3.05,4.63,7.23,5.67,11,3.64,3.92-2.11,5.26-6.24,3.14-11.24Z"/>
  <path class="cls-1" d="M510.32,780.83l6.05,19.24c1.51,4.79,2.97,9.64,4.45,14.49l.1-.03c.1-5.35.33-10.68.54-16.06l.87-21.42,5.56-1.75,12.98,17.06c3.25,4.29,6.49,8.53,9.64,12.86l.1-.03c-1.57-4.82-3.15-9.64-4.65-14.42l-6.05-19.24,4.72-1.49,11.91,37.84-7.76,2.44-12.64-16.53c-3.18-4.26-6.42-8.67-9.5-12.96l-.1.03c-.07,5.28-.19,10.75-.36,16.06l-.84,20.77-7.82,2.46-11.91-37.85,4.72-1.49Z"/>
  <path class="cls-1" d="M469.42,807.69l-1.89-10.7c-.54-3.07-1.23-5.39-1.91-7.02l4.33-.76c.49,1.22.87,2.73,1.1,4l.11-.02c1.37-3.3,4.27-5.56,8.71-6.35,5.74-1.01,9.92,1.82,10.75,6.54.81,4.61-1.22,7.97-8.9,10.62-2.37.81-5.66,1.79-7.79,2.34l.2,1.1c.81,4.61,3.7,6.08,7.38,5.43,4.01-.71,5.72-3.33,5.3-6.65l4.76-.84c.66,5.32-2.42,9.99-9.41,11.22-6.71,1.18-11.44-1.55-12.73-8.9ZM473.28,802.65c2.08-.54,5-1.39,7.05-2.15,4.58-1.54,5.97-3.2,5.48-5.95-.5-2.85-2.9-4.41-6.47-3.78-2.22.39-4.2,1.53-5.3,3.2-1.37,2.05-1.64,3.69-1.06,6.98l.3,1.7Z"/>
  <path class="cls-1" d="M431,793.33l13.38,13.2h.11s-1.05-14.12-1.05-14.12l4.82-.36,2.94,39.57-4.83.36-1.71-23.06h-.11s-10.37,12.57-10.37,12.57l-5.98.44,11.55-13.71-15.13-14.41,6.36-.47Z"/>
  <path class="cls-1" d="M393.57,801.96l-4.95-.12c1.05-4.94,5.39-9.12,12.54-8.95,8.24.2,12.99,6.39,12.76,15.64-.2,8.36-5.19,14.42-13.33,14.22-6.32-.15-10.68-4.05-11.96-10.16-.34-1.62-.46-3.63-.4-6.09l20.88.51c-.05-6.97-3.49-10.23-8.05-10.34-4.07-.1-6.76,2.12-7.5,5.28ZM408.97,810.75l-16.05-.39c.36,5.53,3.48,8.5,7.76,8.61,4.45.11,7.66-2.82,8.28-8.22Z"/>
  <path class="cls-1" d="M349.85,808.73l4.69.6c-.48,3.76,1.55,6.1,5.43,6.59,3.33.42,5.6-.86,5.91-3.29.37-2.93-1.58-3.68-6.08-5.38-4.91-1.92-10.16-3.76-9.33-10.29.64-5.03,5.32-7.86,12.03-7.01,7.25.92,11.11,5.01,10.33,11.6l-4.85-.62c.51-4.04-1.71-6.57-6.02-7.12-3.6-.46-6.21.9-6.54,3.44-.41,3.26,1.8,4.16,6.97,6.17,4.49,1.75,9.12,3.29,8.33,9.43-.61,4.81-5.23,7.59-11.29,6.83-6.76-.86-10.37-4.75-9.58-10.94Z"/>
  <path class="cls-1" d="M280.65,800.15l4.9,1.47c-1.68,5.6.57,9.19,6.1,10.85,4.63,1.39,8.11-.06,9.2-3.69,1.22-4.06-1.32-6.1-7.02-9.5-6.58-3.9-11.67-7.41-9.33-15.2,2.05-6.83,8.63-9.62,16.8-7.17,8.74,2.63,12.63,8.8,10,17.55l-5-1.5c1.88-6.25-.68-10.16-6.31-11.85-5.37-1.62-9.12,0-10.39,4.21-1.27,4.22,1.52,6.22,7.11,9.59,6.67,3.98,11.49,7.41,9.2,15.05-1.84,6.14-7.94,9.02-15.57,6.72-8.95-2.69-12.14-8.31-9.67-16.53Z"/>
  <path class="cls-1" d="M251.61,768.33l-4.55-1.94c2.8-4.2,8.38-6.49,14.95-3.7,7.59,3.23,9.72,10.73,6.1,19.24-3.27,7.7-10.14,11.5-17.63,8.32-5.82-2.47-8.44-7.7-7.38-13.85.28-1.64.91-3.55,1.87-5.81l19.23,8.17c2.52-6.5.53-10.8-3.67-12.58-3.75-1.59-7.07-.52-8.92,2.15ZM262.69,782.18l-14.78-6.28c-1.7,5.27.1,9.19,4.05,10.86,4.1,1.74,8.16.2,10.73-4.59Z"/>
  <path class="cls-1" d="M206.62,754.89l8.43-15.08,4.22,2.36-8.24,14.74c-2.88,5.16-1.81,8.19,1.7,10.14,3.45,1.93,7.8.92,10.58-4.05l7.92-14.15,4.22,2.36-13.82,24.71-4.08-2.28,1.82-3.26-.1-.05c-2.77,1.45-6.25,1.49-9.51-.34-5.57-3.11-6.93-8.34-3.14-15.1Z"/>
  <path class="cls-1" d="M172.44,734.55l3.86,2.73c-2.19,3.1-1.49,6.11,1.7,8.36,2.74,1.93,5.35,1.86,6.76-.14,1.7-2.41.33-4-2.84-7.6-3.44-3.99-7.21-8.09-3.42-13.46,2.93-4.14,8.39-4.45,13.91-.55,5.97,4.22,7.47,9.63,3.69,15.08l-4-2.82c2.35-3.32,1.57-6.6-1.98-9.11-2.96-2.09-5.9-2.12-7.38-.03-1.9,2.69-.36,4.52,3.27,8.72,3.14,3.65,6.5,7.18,2.94,12.24-2.8,3.96-8.18,4.25-13.17.73-5.57-3.93-6.93-9.05-3.33-14.15Z"/>
  <path class="cls-1" d="M150.34,701.99l-3.72-3.26c3.97-3.12,9.98-3.55,15.36,1.16,6.2,5.43,5.88,13.23-.21,20.19-5.51,6.29-13.22,7.75-19.34,2.39-4.76-4.17-5.61-9.95-2.68-15.46.78-1.47,1.97-3.09,3.59-4.93l15.71,13.77c4.43-5.39,3.87-10.09.44-13.1-3.06-2.68-6.55-2.7-9.14-.75ZM156.54,718.61l-12.08-10.58c-3.26,4.48-2.77,8.76.45,11.58,3.35,2.93,7.69,2.73,11.62-1.01Z"/>
</svg>